<svg width="186" height="23" xmlns="http://www.w3.org/2000/svg" xmlns:xlink="http://www.w3.org/1999/xlink" xmlns:svgjs="http://svgjs.com/svgjs" viewBox="0 0.913 186 21.175" fill="#212121"><svg xmlns="http://www.w3.org/2000/svg" width="186" height="23" viewBox="1.25 1.844 184.463 21"><path paint-order="stroke fill markers" fill-rule="evenodd" d="M38.498 20.7V3.873h-5.569v16.825h5.569zm23.544 0V3.873h-5.04v8.64l-6.649-8.64h-4.656v16.825h5.064v-8.592l6.625 8.592h4.656zM83.306 8.265V3.874H68.16v4.392h4.777V20.7h5.568V8.266h4.8zm20.351-.168V3.874H89.424v16.825h14.45v-4.224h-8.881v-2.089h7.872v-4.224h-7.872V8.098h8.664zm16.8 12.601h6.288l-3.312-5.472c1.728-1.056 2.664-2.88 2.664-5.329 0-3.84-2.616-6.024-7.176-6.024h-8.137v16.825h5.568v-4.368h2.089l2.016 4.368zm-4.105-8.592V8.098h2.569c1.2 0 1.896.72 1.896 1.968 0 1.297-.696 2.04-1.896 2.04h-2.569zm22.2 8.592V3.874h-5.568v16.825h5.568zm15.6-16.993c-5.352 0-9.24 3.576-9.24 8.568 0 5.017 3.888 8.665 9.24 8.665 5.353 0 9.241-3.672 9.241-8.665 0-4.968-3.888-8.568-9.24-8.568zm.072 4.632c1.92 0 3.456 1.656 3.456 3.96 0 2.305-1.536 4.009-3.456 4.009s-3.6-1.704-3.6-4.009c0-2.304 1.656-3.96 3.6-3.96zm25.2 12.361h6.288l-3.312-5.472c1.728-1.056 2.664-2.88 2.664-5.329 0-3.84-2.616-6.024-7.176-6.024h-8.137v16.825h5.569v-4.368h2.088l2.016 4.368zm-4.104-8.592V8.098h2.568c1.2 0 1.896.72 1.896 1.968 0 1.297-.696 2.04-1.896 2.04h-2.568zM1.25 11.03V1.844h9.187v9.187H1.25zm11.813-9.187h9.187v9.187h-9.187V1.844zm0 21v-9.188h9.187v9.188h-9.187zm-11.813 0v-9.188h9.187v9.188H1.25z"/></svg></svg>