<svg width="24" height="24" xmlns="http://www.w3.org/2000/svg" xmlns:xlink="http://www.w3.org/1999/xlink" xmlns:svgjs="http://svgjs.com/svgjs" viewBox="0.013 0 23.975 24"><svg xmlns="http://www.w3.org/2000/svg" width="24" height="24" viewBox="1.551 1.5 21.984 22.008"><path paint-order="stroke fill markers" fill-rule="evenodd" d="M10.55 1.5c-1.218 0-2.39.242-3.515.726a8.88 8.88 0 0 0-2.86 1.9 9.5 9.5 0 0 0-1.921 2.882A8.882 8.882 0 0 0 1.55 10.5c0 1.219.234 2.383.703 3.492a9.504 9.504 0 0 0 1.922 2.883 9.193 9.193 0 0 0 2.86 1.922 9.05 9.05 0 0 0 3.515.703 8.767 8.767 0 0 0 3-.516 9.042 9.042 0 0 0 2.601-1.453l5.672 5.672a.99.99 0 0 0 .727.305.918.918 0 0 0 .703-.305.955.955 0 0 0 .281-.703.955.955 0 0 0-.28-.703l-5.673-5.672a8.972 8.972 0 0 0 1.453-2.625 8.782 8.782 0 0 0 .516-3 8.635 8.635 0 0 0-.727-3.492 8.963 8.963 0 0 0-1.922-2.883 8.885 8.885 0 0 0-2.859-1.899 8.643 8.643 0 0 0-3.492-.726zm0 1.992c.938 0 1.844.188 2.72.563.859.375 1.601.875 2.226 1.5a7.17 7.17 0 0 1 1.5 2.226c.36.86.54 1.766.54 2.719 0 .953-.18 1.86-.54 2.719a7.158 7.158 0 0 1-1.5 2.226 7.164 7.164 0 0 1-2.226 1.5 6.84 6.84 0 0 1-2.72.563c-.952 0-1.859-.188-2.718-.562a7.09 7.09 0 0 1-2.25-1.5 6.838 6.838 0 0 1-1.476-2.227 6.722 6.722 0 0 1-.563-2.72c0-.952.187-1.859.563-2.718a6.848 6.848 0 0 1 1.476-2.226 7.1 7.1 0 0 1 2.25-1.5 6.723 6.723 0 0 1 2.719-.563z"/></svg></svg>